<svg xmlns="http://www.w3.org/2000/svg" fill="none" viewBox="0 0 186 28">
  <g fill="#ffcd00" clip-path="url(#a)">
    <path d="M46.606 15.079h-2.893l1.447-4.8 1.446 4.8Zm69.42-9.935h-8.068l-3.488 9.477-3.489-9.477h-8.142V16.13c0 1.65-1.38 2.081-2.253 2.081-.872 0-2.18-.43-2.18-2.081V5.144H68.852v2.441C67.253 5.934 64.71 5 61.513 5c-5.161 0-9.377 3.734-9.668 8.472l-2.834-8.328h-7.268L36 22.664h5.815l1.09-3.447h5.088l1.018 3.446h5.887l-.944-2.8c1.816 2.082 4.505 3.375 7.558 3.375 4.725 0 8.432-2.154 9.086-5.96h-5.669c-.8 1.221-2.107 1.652-3.416 1.652-2.69 0-4.143-2.154-4.143-4.81 0-2.657 1.38-4.812 4.143-4.812 1.454 0 2.616.288 3.416 1.58h8.214v11.775h5.45V10.888h4.144v6.318c0 2.155.726 3.662 2.18 4.596 1.526.933 3.271 1.435 5.67 1.435 2.253 0 4.288-.503 5.742-1.507 1.453-.933 2.107-2.586 2.107-4.811v-4.666l3.78 10.41h4.506l3.997-11.058v11.058h5.307V5.144ZM129.343 22.45c1.085 0 2.045-.098 2.881-.293.836-.196 1.549-.483 2.141-.863.591-.38 1.135-.9 1.633-1.56.497-.662.905-1.498 1.223-2.507.318-1.01.477-2.168.477-3.474 0-1.534-.234-2.898-.703-4.09-.469-1.194-1.177-2.174-2.123-2.941-.725-.595-1.602-1.006-2.63-1.233-.734-.164-1.798-.246-3.192-.246h-6.177V22.45h6.47Zm-.269-2.03h-3.828V7.274h3.767c1.411 0 2.434.117 3.07.352.881.328 1.629.976 2.245 1.942.616.967.924 2.35.924 4.15 0 1.299-.157 2.404-.471 3.315-.314.912-.753 1.638-1.315 2.178-.4.383-.936.68-1.609.892-.673.211-1.6.317-2.783.317Zm13.322-12.747v-2.43h-2.202v2.43h2.202Zm0 14.777V9.985h-2.202V22.45h2.202Zm7.584 5.06c1.305 0 2.404-.236 3.297-.705.893-.47 1.545-1.11 1.957-1.92.412-.809.618-2.184.618-4.125V9.985h-2.031v1.502c-.995-1.19-2.259-1.784-3.792-1.784-1.15 0-2.151.274-3.003.822-.852.548-1.503 1.324-1.951 2.33-.449 1.005-.673 2.103-.673 3.292 0 1.73.489 3.212 1.468 4.449.979 1.236 2.361 1.854 4.147 1.854 1.435 0 2.634-.543 3.596-1.631.008 1.377-.045 2.28-.159 2.711-.196.704-.571 1.252-1.125 1.643-.555.392-1.342.587-2.361.587-.946 0-1.692-.195-2.239-.587-.407-.29-.656-.75-.746-1.385l-2.14-.305c-.033 1.346.428 2.354 1.382 3.023s2.206 1.003 3.755 1.003Zm.245-6.809c-1.02 0-1.868-.375-2.545-1.126-.676-.752-1.015-1.945-1.015-3.58 0-1.503.343-2.635 1.028-3.398.685-.763 1.516-1.145 2.495-1.145.995 0 1.845.387 2.55 1.162.706.775 1.059 1.925 1.059 3.451 0 1.596-.343 2.768-1.028 3.515-.685.748-1.533 1.121-2.544 1.121Zm10.667-13.028v-2.43h-2.202v2.43h2.202Zm0 14.777V9.985h-2.202V22.45h2.202Zm6.312.165c.489 0 1.044-.063 1.664-.188l-.318-1.866c-.4.054-.722.082-.967.082-.326 0-.577-.051-.752-.153a.891.891 0 0 1-.379-.41c-.078-.173-.116-.56-.116-1.163v-7.289h2.214V9.985h-2.214V5.63l-2.19 1.268v3.087h-1.615v1.643h1.615V18.8c0 1.268.09 2.099.269 2.494.179.395.489.714.93.957.44.242 1.06.364 1.859.364Zm6.692.117c.864 0 1.673-.137 2.428-.41.754-.275 1.539-.744 2.354-1.41.066.588.212 1.1.441 1.538h2.299a4.59 4.59 0 0 1-.556-1.496c-.094-.52-.141-1.763-.141-3.727V14.41c0-.939-.037-1.588-.11-1.948-.13-.58-.359-1.059-.685-1.438-.326-.38-.836-.695-1.529-.945s-1.594-.376-2.703-.376c-1.118 0-2.1.147-2.948.44-.848.294-1.497.712-1.945 1.256-.449.544-.771 1.258-.967 2.142l2.153.282c.237-.884.602-1.5 1.095-1.848.493-.349 1.258-.523 2.294-.523 1.109 0 1.945.239 2.507.716.416.352.624.959.624 1.82 0 .078-.004.262-.012.551-.84.282-2.149.524-3.927.728-.872.102-1.525.207-1.957.317a5.46 5.46 0 0 0-1.584.692c-.469.305-.848.71-1.138 1.215a3.307 3.307 0 0 0-.434 1.673c0 1.04.383 1.895 1.15 2.564.767.67 1.863 1.004 3.291 1.004Zm.525-1.655c-.856 0-1.506-.188-1.951-.563-.444-.376-.666-.845-.666-1.409 0-.368.102-.702.306-1.003.203-.302.493-.53.868-.687.375-.157 1.015-.297 1.921-.423 1.598-.219 2.797-.485 3.596-.798v.775c0 .931-.118 1.635-.355 2.113-.31.618-.795 1.105-1.456 1.46-.66.357-1.414.535-2.263.535Zm11.365 1.373V5.243h-2.202V22.45h2.202Z"/>
  </g>
  <g clip-path="url(#b)">
    <path fill="#ffcd00" d="M14 0a14.004 14.004 0 1 1-9.898 4.102A13.947 13.947 0 0 1 14 0Zm-.089 16.903-2.04 5.635a1.124 1.124 0 0 1-.587.645 1.14 1.14 0 0 1-1.554-1.422l1.422-3.937c.113-.297.202-.602.266-.912a9.27 9.27 0 0 0 .123-.952c.055-.577.094-1.201.123-1.8.03-.6.05-1.18.067-1.662.02-.599-.142-.638-.623-.752l-.1-.022-4.101-.773a1.14 1.14 0 0 1-.736-.47 1.14 1.14 0 0 1 1.15-1.763l4.407.827c.176.016.347.037.527.057.542.075 1.088.115 1.636.121a18.49 18.49 0 0 0 2.037-.153c.205-.022.399-.048.592-.066l4.159-.779a1.14 1.14 0 0 1 .854.162 1.14 1.14 0 0 1 .296 1.595 1.14 1.14 0 0 1-.73.476l-3.975.747c-.132.03-.25.05-.355.066-.415.071-.62.108-.595.698.018.43.07.945.139 1.483.08.631.184 1.301.294 1.914.07.404.137.727.228 1.037.09.31.18.627.316 1.007l1.393 3.851a1.14 1.14 0 1 1-2.142.777l-2.046-5.624-.228-.417-.228.406h.011Zm.09-12.195a2.012 2.012 0 1 1 .002 4.024A2.012 2.012 0 0 1 14 4.708Zm8.282 1.01A11.717 11.717 0 1 0 25.701 14a11.683 11.683 0 0 0-3.418-8.283Z"/>
  </g>
  <defs>
    <clipPath id="a">
      <path fill="#ffcd00" d="M0 0h150v23H0z" transform="translate(36 5)"/>
    </clipPath>
    <clipPath id="b">
      <path fill="#ffcd00" d="M0 0h28v28H0z"/>
    </clipPath>
  </defs>
</svg>
